<svg xmlns="http://www.w3.org/2000/svg" height="512pt" version="1.1" viewBox="0 0 512 512" width="512pt">
<g id="surface1">
<path d="M 512 256 C 512 397.386719 397.386719 512 256 512 C 114.613281 512 0 397.386719 0 256 C 0 114.613281 114.613281 0 256 0 C 397.386719 0 512 114.613281 512 256 Z M 512 256 " style=" stroke:none;fill-rule:nonzero;fill:rgb(0%,93.72549%,81.960784%);fill-opacity:1;" />
<path d="M 512 256 C 512 224.480469 506.289062 194.300781 495.871094 166.414062 L 423.789062 94.316406 C 420.441406 90.742188 415.6875 88.5 410.4375 88.5 L 101.566406 88.5 C 91.488281 88.5 83.242188 96.746094 83.242188 106.824219 L 83.242188 345.878906 C 83.242188 351.027344 85.394531 355.695312 88.847656 359.03125 C 88.847656 359.03125 187.773438 458.164062 241.695312 511.59375 C 246.429688 511.855469 251.195312 512 256 512 C 397.386719 512 512 397.386719 512 256 Z M 512 256 " style=" stroke:none;fill-rule:nonzero;fill:rgb(0%,67.843137%,58.431373%);fill-opacity:1;" />
<path d="M 202.191406 358.355469 L 309.808594 358.355469 L 309.808594 425.917969 L 202.191406 425.917969 Z M 202.191406 358.355469 " style=" stroke:none;fill-rule:nonzero;fill:rgb(93.333333%,14.901961%,0%);fill-opacity:1;" />
<path d="M 256 358.351562 L 309.808594 358.351562 L 309.808594 425.921875 L 256 425.921875 Z M 256 358.351562 " style=" stroke:none;fill-rule:nonzero;fill:rgb(79.215686%,10.980392%,0%);fill-opacity:1;" />
<path d="M 410.433594 364.203125 L 101.566406 364.203125 C 91.484375 364.203125 83.238281 355.960938 83.238281 345.878906 L 83.238281 106.824219 C 83.238281 96.746094 91.484375 88.5 101.566406 88.5 L 410.433594 88.5 C 420.515625 88.5 428.761719 96.746094 428.761719 106.824219 L 428.761719 345.878906 C 428.761719 355.957031 420.515625 364.203125 410.433594 364.203125 Z M 410.433594 364.203125 " style=" stroke:none;fill-rule:nonzero;fill:rgb(100%,38.823529%,24.313725%);fill-opacity:1;" />
<path d="M 428.761719 106.828125 L 428.761719 345.878906 C 428.761719 355.960938 420.511719 364.199219 410.441406 364.199219 L 256 364.199219 L 256 88.5 L 410.441406 88.5 C 420.511719 88.5 428.761719 96.75 428.761719 106.828125 Z M 428.761719 106.828125 " style=" stroke:none;fill-rule:nonzero;fill:rgb(93.333333%,14.901961%,0%);fill-opacity:1;" />
<path d="M 270.332031 338.832031 C 270.332031 346.75 263.914062 353.164062 256 353.164062 C 248.085938 353.164062 241.667969 346.75 241.667969 338.832031 C 241.667969 330.917969 248.085938 324.5 256 324.5 C 263.914062 324.5 270.332031 330.917969 270.332031 338.832031 Z M 270.332031 338.832031 " style=" stroke:none;fill-rule:nonzero;fill:rgb(93.333333%,14.901961%,0%);fill-opacity:1;" />
<path d="M 270.328125 338.828125 C 270.328125 346.75 263.921875 353.171875 256 353.171875 L 256 324.5 C 263.921875 324.5 270.328125 330.921875 270.328125 338.828125 Z M 270.328125 338.828125 " style=" stroke:none;fill-rule:nonzero;fill:rgb(79.215686%,10.980392%,0%);fill-opacity:1;" />
<path d="M 83.238281 118.761719 L 428.761719 118.761719 L 428.761719 312.214844 L 83.238281 312.214844 Z M 83.238281 118.761719 " style=" stroke:none;fill-rule:nonzero;fill:rgb(34.117647%,33.333333%,36.078431%);fill-opacity:1;" />
<path d="M 143.28125 158.839844 L 109.734375 178.757812 L 109.734375 169.039062 L 130.53125 156.449219 L 109.734375 143.539062 L 109.734375 134.21875 L 143.28125 154.457031 Z M 143.28125 158.839844 " style=" stroke:none;fill-rule:nonzero;fill:rgb(100%,100%,100%);fill-opacity:1;" />
<path d="M 152.691406 178.757812 L 152.691406 170.871094 L 182.332031 170.871094 L 182.332031 178.757812 Z M 152.691406 178.757812 " style=" stroke:none;fill-rule:nonzero;fill:rgb(100%,100%,100%);fill-opacity:1;" />
<path d="M 256 118.761719 L 428.761719 118.761719 L 428.761719 312.210938 L 256 312.210938 Z M 256 118.761719 " style=" stroke:none;fill-rule:nonzero;fill:rgb(16.470588%,16.470588%,17.254902%);fill-opacity:1;" />
<path d="M 181.222656 417.472656 L 330.777344 417.472656 L 330.777344 450.550781 L 181.222656 450.550781 Z M 181.222656 417.472656 " style=" stroke:none;fill-rule:nonzero;fill:rgb(100%,38.823529%,24.313725%);fill-opacity:1;" />
<path d="M 256 417.46875 L 330.78125 417.46875 L 330.78125 450.550781 L 256 450.550781 Z M 256 417.46875 " style=" stroke:none;fill-rule:nonzero;fill:rgb(93.333333%,14.901961%,0%);fill-opacity:1;" />
</g>
</svg>